<svg xmlns="http://www.w3.org/2000/svg" width="96" height="96" viewBox="0 0 96 96"><defs><style>.cls-1{fill:#f3f5f9;}.cls-11,.cls-2,.cls-3{fill:none;}.cls-12,.cls-2,.cls-3{stroke:#333;}.cls-11,.cls-12,.cls-2,.cls-3{stroke-linecap:round;stroke-linejoin:round;}.cls-11,.cls-12,.cls-2,.cls-3,.cls-9{stroke-width:2px;}.cls-2{fill-rule:evenodd;}.cls-4{fill:#dcdce4;}.cls-5{fill:#d7f1ec;}.cls-6{fill:#ced8ed;}.cls-7{fill:#fde3d8;}.cls-8{fill:#fcdfdf;}.cls-12,.cls-9{fill:#fff;}.cls-11,.cls-9{stroke:#158a73;}.cls-9{stroke-miterlimit:10;}.cls-10{fill:#158a73;}.cls-13{fill:#333;}</style></defs><title>SS_icons_new</title><g id="Layer_3" data-name="Layer 3"><rect class="cls-1" x="8" y="24" width="80" height="57"/><path id="Rectangle-7-Copy" class="cls-2" d="M8,25.44V15H88V81H8V25.44Z"/><line class="cls-3" x1="8" y1="24" x2="88" y2="24"/><circle id="Oval-6" class="cls-4" cx="11.96" cy="19.7" r="1.39"/><circle id="Oval-6-Copy" class="cls-4" cx="16.12" cy="19.7" r="1.39"/><circle id="Oval-6-Copy-2" class="cls-4" cx="20.28" cy="19.7" r="1.39"/><rect class="cls-5" x="15" y="34.5" width="66" height="16" rx="1"/><rect class="cls-6" x="15" y="54.5" width="18" height="16" rx="1"/><rect class="cls-7" x="63" y="54.5" width="18" height="16" rx="1"/><rect class="cls-8" x="39" y="54.5" width="18" height="16" rx="1"/><circle class="cls-9" cx="48" cy="52" r="10"/><circle class="cls-10" cx="44.93" cy="48.77" r="0.97"/><circle class="cls-10" cx="51.07" cy="48.77" r="0.97"/><path class="cls-11" d="M44.12,54.59a5.49,5.49,0,0,0,7.76,0"/><circle class="cls-12" cx="81" cy="52" r="10"/><circle class="cls-13" cx="77.93" cy="49.09" r="0.97"/><circle class="cls-13" cx="84.07" cy="49.09" r="0.97"/><path class="cls-3" d="M84.88,55.88a5.47,5.47,0,0,0-7.76,0"/><circle class="cls-12" cx="15" cy="52" r="10"/><circle class="cls-13" cx="11.93" cy="49.17" r="0.97"/><circle class="cls-13" cx="18.07" cy="49.17" r="0.97"/><line class="cls-3" x1="11.77" y1="55.8" x2="18.23" y2="55.8"/></g></svg>