<svg xmlns="http://www.w3.org/2000/svg" width="96" height="96" viewBox="0 0 96 96"><defs><style>.cls-1,.cls-4,.cls-5{fill:#fff;}.cls-1,.cls-2{stroke:#158a73;}.cls-1,.cls-2,.cls-4,.cls-5{stroke-linecap:round;stroke-linejoin:round;stroke-width:2px;}.cls-2{fill:none;}.cls-3{fill:#158a73;}.cls-4,.cls-5{stroke:#333;}.cls-5{fill-rule:evenodd;}</style></defs><title>SS_icons_new</title><g id="Layer_4" data-name="Layer 4"><rect class="cls-1" x="47.86" y="9.13" width="20" height="33.33" transform="translate(30.12 -31.16) rotate(40)"/><polyline class="cls-2" points="59.11 13.42 60.85 11.34 62.37 12.62"/><polyline class="cls-2" points="69.82 22.4 71.56 20.33 70.05 19.05"/><polyline class="cls-2" points="56.14 38.71 54.4 40.79 52.88 39.51"/><polyline class="cls-2" points="45.43 29.73 43.69 31.8 45.2 33.08"/><path class="cls-3" d="M55.84,27.1a3.22,3.22,0,0,1,.57.83,2.84,2.84,0,0,0,.58.8c.44.36.77.45,1,.26a3.39,3.39,0,0,1,.4-.29.47.47,0,0,1,.5.13.56.56,0,0,1,.22.4.58.58,0,0,1-.15.41,1.63,1.63,0,0,1-.44.36c-.66.41-1.41.26-2.24-.43a3.44,3.44,0,0,1-.66-.88,3.18,3.18,0,0,0-.62-.86,1.63,1.63,0,0,0-.62-.28,1.68,1.68,0,0,1-.49-.18.57.57,0,0,1-.2-.38.54.54,0,0,1,.12-.39.6.6,0,0,1,.43-.18,4.34,4.34,0,0,0,.61-.09,1.6,1.6,0,0,0,.7-.51,6,6,0,0,0,.64-1.1l-.41-.33c-.42-.36-.51-.68-.27-1a.52.52,0,0,1,.37-.19.53.53,0,0,1,.41.13l.18.17.18.16.1.09.05-.06a3.1,3.1,0,0,1,1.81-1.14,2.51,2.51,0,0,1,2.2.62,3.07,3.07,0,0,1,.85,1.12,1.24,1.24,0,0,1-.1,1.38.45.45,0,0,1-.38.18.61.61,0,0,1-.41-.15.49.49,0,0,1-.19-.46,3.82,3.82,0,0,0,0-.53,1.43,1.43,0,0,0-.55-.76,1.33,1.33,0,0,0-1.25-.31,2.24,2.24,0,0,0-1.15.78c.25.18.48.35.68.52l.57.51c.25.24.44.41.58.52a.58.58,0,0,1,.21.38.54.54,0,0,1-.13.4.53.53,0,0,1-.38.2.57.57,0,0,1-.41-.15l-.57-.51-.57-.52c-.15-.12-.32-.26-.54-.41a6.35,6.35,0,0,1-.68,1.17A3.06,3.06,0,0,1,55.84,27.1Z"/><circle class="cls-2" cx="57.86" cy="25.8" r="6"/><rect class="cls-1" x="28" y="9.33" width="20" height="33.33" transform="translate(-7.82 30.51) rotate(-40)"/><polyline class="cls-2" points="26.02 22.62 24.28 20.54 25.8 19.27"/><polyline class="cls-2" points="36.73 13.63 34.99 11.55 33.47 12.83"/><polyline class="cls-2" points="50.42 29.94 52.16 32.01 50.64 33.29"/><polyline class="cls-2" points="39.71 38.93 41.45 41 42.97 39.73"/><path class="cls-3" d="M38.93,28.22a3.41,3.41,0,0,1,.91-.42,2.88,2.88,0,0,0,.9-.44c.43-.36.57-.68.43-.94A3,3,0,0,1,41,26a.47.47,0,0,1,.22-.48.55.55,0,0,1,.43-.14.61.61,0,0,1,.38.21,1.91,1.91,0,0,1,.28.49c.28.73,0,1.44-.82,2.14a3.17,3.17,0,0,1-1,.49,3.07,3.07,0,0,0-1,.47,1.71,1.71,0,0,0-.39.56,1.47,1.47,0,0,1-.26.45.55.55,0,0,1-.41.13.53.53,0,0,1-.37-.18.61.61,0,0,1-.09-.45,4.51,4.51,0,0,0,0-.62,1.56,1.56,0,0,0-.37-.78,5.86,5.86,0,0,0-1-.82l-.4.34c-.42.36-.76.39-1,.1a.5.5,0,0,1-.12-.39.57.57,0,0,1,.2-.39l.19-.15.2-.15.1-.08,0-.06a3.14,3.14,0,0,1-.81-2,2.5,2.5,0,0,1,1-2.05A3,3,0,0,1,37.21,22a1.25,1.25,0,0,1,1.34.33.51.51,0,0,1,.11.41.62.62,0,0,1-.22.38.5.5,0,0,1-.49.11,2.67,2.67,0,0,0-.51-.13,1.46,1.46,0,0,0-.84.4,1.34,1.34,0,0,0-.53,1.19,2.23,2.23,0,0,0,.57,1.26c.22-.22.43-.41.63-.58l.61-.47.6-.48a.59.59,0,0,1,.41-.14.53.53,0,0,1,.38.2.54.54,0,0,1,.13.4.56.56,0,0,1-.22.38c-.13.11-.33.27-.6.47s-.48.37-.61.48l-.5.45a6.78,6.78,0,0,1,1,.88A3.16,3.16,0,0,1,38.93,28.22Z"/><circle class="cls-2" cx="38" cy="26" r="6"/><rect class="cls-1" x="28" y="9.33" width="20" height="33.33" transform="translate(-6.6 14.56) rotate(-20)"/><polyline class="cls-2" points="27.9 18.72 26.98 16.18 28.84 15.5"/><polyline class="cls-2" points="41.04 13.94 40.12 11.39 38.25 12.07"/><polyline class="cls-2" points="48.33 33.95 49.25 36.49 47.39 37.17"/><polyline class="cls-2" points="35.18 38.73 36.11 41.28 37.98 40.6"/><path class="cls-3" d="M38.12,28.41a2.74,2.74,0,0,1,1-.09,2.6,2.6,0,0,0,1-.11c.53-.19.78-.43.74-.73a2.5,2.5,0,0,1-.06-.5c0-.16.14-.28.37-.36a.51.51,0,0,1,.45,0,.57.57,0,0,1,.28.33,1.87,1.87,0,0,1,.1.56c0,.78-.48,1.35-1.5,1.72a3,3,0,0,1-1.09.13,3,3,0,0,0-1,.12,1.5,1.5,0,0,0-.56.39,1.57,1.57,0,0,1-.4.33.58.58,0,0,1-.43,0,.55.55,0,0,1-.28-.3.66.66,0,0,1,.06-.46,4.06,4.06,0,0,0,.23-.58,1.55,1.55,0,0,0-.09-.86,5.61,5.61,0,0,0-.63-1.1l-.5.18c-.52.19-.84.11-1-.24a.56.56,0,0,1,0-.42.57.57,0,0,1,.32-.29l.23-.07.23-.08.13,0,0-.07a3.06,3.06,0,0,1-.09-2.14,2.51,2.51,0,0,1,1.64-1.59,3.07,3.07,0,0,1,1.4-.18,1.22,1.22,0,0,1,1.14.77.48.48,0,0,1,0,.42.59.59,0,0,1-.33.29.5.5,0,0,1-.49-.07,2.62,2.62,0,0,0-.45-.3,1.36,1.36,0,0,0-.92.1,1.32,1.32,0,0,0-.9.92,2.2,2.2,0,0,0,.11,1.39q.42-.19.78-.33l.73-.24.74-.24a.58.58,0,0,1,.43,0,.52.52,0,0,1,.29.31.51.51,0,0,1,0,.42.59.59,0,0,1-.33.29l-.73.24-.74.24-.62.25A7,7,0,0,1,38,27.61,3.17,3.17,0,0,1,38.12,28.41Z"/><circle class="cls-2" cx="38" cy="26" r="6"/><rect class="cls-1" x="48" y="9.33" width="20" height="33.33" transform="translate(12.39 -18.27) rotate(20)"/><polyline class="cls-2" points="54.94 13.94 55.87 11.39 57.73 12.07"/><polyline class="cls-2" points="68.08 18.72 69.01 16.17 67.14 15.49"/><polyline class="cls-2" points="60.8 38.73 59.87 41.27 58.01 40.59"/><polyline class="cls-2" points="47.66 33.94 46.73 36.49 48.6 37.17"/><path class="cls-3" d="M56.54,27.92a3.42,3.42,0,0,1,.83.57,2.65,2.65,0,0,0,.82.56c.53.19.87.16,1-.09a2.85,2.85,0,0,1,.28-.42.49.49,0,0,1,.52-.05.55.55,0,0,1,.33.3.61.61,0,0,1,0,.44,1.7,1.7,0,0,1-.29.49,1.82,1.82,0,0,1-2.25.36,3.22,3.22,0,0,1-.92-.6,3.17,3.17,0,0,0-.88-.59,1.45,1.45,0,0,0-.68-.06,1.39,1.39,0,0,1-.52,0,.54.54,0,0,1-.32-.29.53.53,0,0,1,0-.41.58.58,0,0,1,.34-.31,3.46,3.46,0,0,0,.54-.3,1.49,1.49,0,0,0,.49-.71,5.5,5.5,0,0,0,.22-1.26l-.49-.17c-.53-.19-.72-.46-.59-.81a.51.51,0,0,1,.28-.31.5.5,0,0,1,.43,0,1,1,0,0,1,.23.09l.22.09.13,0,0-.06a3.1,3.1,0,0,1,1.31-1.69,2.53,2.53,0,0,1,2.28-.18,3.22,3.22,0,0,1,1.19.77,1.25,1.25,0,0,1,.38,1.33.48.48,0,0,1-.3.29.61.61,0,0,1-.44,0,.53.53,0,0,1-.34-.37,3.3,3.3,0,0,0-.14-.51,1.47,1.47,0,0,0-.77-.53,1.34,1.34,0,0,0-1.29.14,2.14,2.14,0,0,0-.8,1.12l.81.26.71.29.72.28a.54.54,0,0,1,.32.29.48.48,0,0,1,0,.42.51.51,0,0,1-.28.31.56.56,0,0,1-.44,0c-.16-.06-.4-.15-.71-.29l-.72-.29-.64-.2a6.41,6.41,0,0,1-.25,1.33A2.76,2.76,0,0,1,56.54,27.92Z"/><circle class="cls-2" cx="58" cy="26" r="6"/><rect class="cls-1" x="38" y="9.33" width="20" height="33.33"/><polyline class="cls-2" points="41 15.71 41 13 42.98 13"/><polyline class="cls-2" points="54.98 15.71 54.98 13 53 13"/><polyline class="cls-2" points="54.98 37 54.98 39.71 53 39.71"/><polyline class="cls-2" points="41 37 41 39.71 42.98 39.71"/><path class="cls-3" d="M47.29,28.3a3.44,3.44,0,0,1,1,.26,2.77,2.77,0,0,0,1,.24c.56,0,.88-.15.94-.44s.1-.45.11-.48a.5.5,0,0,1,.48-.23.57.57,0,0,1,.42.17.59.59,0,0,1,.15.41,1.7,1.7,0,0,1-.1.56c-.25.73-.92,1.1-2,1.1a3,3,0,0,1-1.07-.25,3.2,3.2,0,0,0-1-.25,1.56,1.56,0,0,0-.65.18,1.55,1.55,0,0,1-.49.18.59.59,0,0,1-.4-.16.52.52,0,0,1-.16-.38.62.62,0,0,1,.21-.41,3.61,3.61,0,0,0,.41-.46,1.64,1.64,0,0,0,.22-.84A6.58,6.58,0,0,0,46,26.24h-.53c-.55,0-.83-.19-.83-.56a.53.53,0,0,1,.16-.39.52.52,0,0,1,.4-.16h.62v-.08a3.09,3.09,0,0,1,.65-2,2.53,2.53,0,0,1,2.08-.94,3,3,0,0,1,1.38.31,1.24,1.24,0,0,1,.81,1.12.48.48,0,0,1-.18.38.61.61,0,0,1-.41.15.5.5,0,0,1-.44-.23,3.26,3.26,0,0,0-.31-.43,1.39,1.39,0,0,0-.9-.23,1.36,1.36,0,0,0-1.17.56A2.23,2.23,0,0,0,47,25.08c.31,0,.59,0,.85,0l.77,0c.34,0,.6,0,.77,0a.6.6,0,0,1,.41.16.51.51,0,0,1,.16.39.5.5,0,0,1-.16.39.6.6,0,0,1-.41.16l-.77,0-.77,0-.68,0a6.26,6.26,0,0,1,.23,1.34A3,3,0,0,1,47.29,28.3Z"/><circle class="cls-2" cx="48" cy="26" r="6"/><rect class="cls-1" x="38" y="9.33" width="20" height="33.33"/><polyline class="cls-2" points="41 15.71 41 13 42.98 13"/><polyline class="cls-2" points="54.98 15.71 54.98 13 53 13"/><polyline class="cls-2" points="54.98 37 54.98 39.71 53 39.71"/><polyline class="cls-2" points="41 37 41 39.71 42.98 39.71"/><path class="cls-3" d="M47.29,28.3a3.44,3.44,0,0,1,1,.26,2.77,2.77,0,0,0,1,.24c.56,0,.88-.15.94-.44s.1-.45.11-.48a.5.5,0,0,1,.48-.23.57.57,0,0,1,.42.17.59.59,0,0,1,.15.41,1.7,1.7,0,0,1-.1.56c-.25.73-.92,1.1-2,1.1a3,3,0,0,1-1.07-.25,3.2,3.2,0,0,0-1-.25,1.56,1.56,0,0,0-.65.18,1.55,1.55,0,0,1-.49.18.59.59,0,0,1-.4-.16.52.52,0,0,1-.16-.38.62.62,0,0,1,.21-.41,3.61,3.61,0,0,0,.41-.46,1.64,1.64,0,0,0,.22-.84A6.58,6.58,0,0,0,46,26.24h-.53c-.55,0-.83-.19-.83-.56a.53.53,0,0,1,.16-.39.52.52,0,0,1,.4-.16h.62v-.08a3.09,3.09,0,0,1,.65-2,2.53,2.53,0,0,1,2.08-.94,3,3,0,0,1,1.38.31,1.24,1.24,0,0,1,.81,1.12.48.48,0,0,1-.18.38.61.61,0,0,1-.41.15.5.5,0,0,1-.44-.23,3.26,3.26,0,0,0-.31-.43,1.39,1.39,0,0,0-.9-.23,1.36,1.36,0,0,0-1.17.56A2.23,2.23,0,0,0,47,25.08c.31,0,.59,0,.85,0l.77,0c.34,0,.6,0,.77,0a.6.6,0,0,1,.41.16.51.51,0,0,1,.16.39.5.5,0,0,1-.16.39.6.6,0,0,1-.41.16l-.77,0-.77,0-.68,0a6.26,6.26,0,0,1,.23,1.34A3,3,0,0,1,47.29,28.3Z"/><circle class="cls-2" cx="48" cy="26" r="6"/><path class="cls-4" d="M79.88,29.33a31.88,31.88,0,0,1-63.75,0Z"/><path id="Combined-Shape" class="cls-5" d="M27.85,50.54a20.15,20.15,0,0,0,17.95,20L47,83.14H49L50.2,70.57a20.15,20.15,0,0,0,18-20h0V29.33H27.85V50.54Z"/><rect class="cls-4" x="40.35" y="83.01" width="16.15" height="4.25"/><rect class="cls-4" x="31.85" y="87.26" width="33.15" height="4.25"/><polygon class="cls-4" points="51.34 44.25 58.84 45.27 53.47 50.6 54.81 58.05 48.08 54.59 41.41 58.17 42.63 50.7 37.16 45.46 44.64 44.31 47.93 37.49 51.34 44.25"/></g></svg>