<svg xmlns="http://www.w3.org/2000/svg" width="96" height="96" viewBox="0 0 96 96"><defs><style>.cls-1,.cls-5,.cls-7{fill:#fff;}.cls-1,.cls-7,.cls-8{stroke:#333;}.cls-1,.cls-4,.cls-5,.cls-6,.cls-7,.cls-8,.cls-9{stroke-linecap:round;}.cls-1,.cls-4,.cls-7,.cls-8,.cls-9{stroke-linejoin:round;stroke-width:2px;}.cls-1,.cls-5{fill-rule:evenodd;}.cls-2{fill:#f4f4f4;}.cls-3{fill:#df4f71;}.cls-4,.cls-6,.cls-8,.cls-9{fill:none;}.cls-4{stroke:#f4f4f4;}.cls-5,.cls-6,.cls-9{stroke:#158a73;}.cls-5{stroke-width:2px;}.cls-6{stroke-width:1.5px;}</style></defs><title>SS_icons_new</title><g id="Layer_2" data-name="Layer 2"><path id="Rectangle-7-Copy" class="cls-1" d="M8,28.17V19H88V77H8V28.17Z"/><rect class="cls-2" x="13" y="27" width="22" height="7"/><rect class="cls-3" x="13" y="63" width="70" height="9"/><rect class="cls-2" x="37" y="27" width="22" height="7"/><rect class="cls-2" x="13" y="38" width="34" height="7"/><rect class="cls-2" x="49" y="38" width="10" height="7"/><rect class="cls-2" x="61" y="38" width="10" height="7"/><rect class="cls-2" x="73" y="38" width="10" height="7"/><rect class="cls-2" x="61" y="27" width="22" height="7"/><line class="cls-4" x1="25" y1="50.97" x2="83" y2="50.97"/><line class="cls-4" x1="25" y1="55.97" x2="83" y2="55.97"/><path id="Rectangle-7" class="cls-5" d="M23,28.38a3.12,3.12,0,0,0,2.66,2.9l6.08.91A1.77,1.77,0,0,0,34,30.12l-1-5.65A3.2,3.2,0,0,0,29.87,22H25.69A2.6,2.6,0,0,0,23,24.5Z"/><path id="Rectangle-Copy-2" class="cls-5" d="M23.46,30.08a1,1,0,0,0,1.41,0l6.56-6.56a1,1,0,0,0,0-1.41L13.72,4.4a5.65,5.65,0,0,0-8,0h0a5.63,5.63,0,0,0,0,8Z"/><path id="Rectangle-Copy" class="cls-6" d="M7.7,6.36a3.21,3.21,0,0,0,0,4.55"/><path id="Path-40" class="cls-6" d="M11.23,7.29,27.5,23.5"/><path id="Path-40-Copy" class="cls-6" d="M10.63,13.1,24.5,26.5"/><circle id="Oval-7-Copy" class="cls-7" cx="79.31" cy="78.14" r="14.33"/><g id="Group"><circle id="Oval-2" class="cls-8" cx="79.2" cy="76.25" r="3.61"/><path id="Oval-2-Copy" class="cls-8" d="M82.81,83.46a3.61,3.61,0,0,0-7.22,0"/></g><polyline class="cls-9" points="21 51.36 16.77 55.59 14.85 53.67"/></g></svg>