<svg xmlns="http://www.w3.org/2000/svg" width="50" height="74" viewBox="0 0 50 74"><defs><style>.cls-1,.cls-2,.cls-3{fill:#fff;}.cls-2{stroke:#333;}.cls-2,.cls-3{stroke-miterlimit:10;stroke-width:2px;}.cls-3{stroke:#158a73;}</style></defs><g id="Layer_2" data-name="Layer 2"><path class="cls-1" d="M46.86,63.23V68.8a1.14,1.14,0,0,1-1.13,1.14H4.27A1.14,1.14,0,0,1,3.14,68.8V63.23a10.61,10.61,0,0,1,6.21-9.65,16.59,16.59,0,0,1-5.43-6.23A15,15,0,0,1,5,32.51a14.68,14.68,0,0,0,2.45-8.1V18.26A14.19,14.19,0,0,1,21.59,4.06h6.82A14.19,14.19,0,0,1,42.6,18.26c0,6.51-.16,7.79.63,10.38,1.11,3.66,2.57,4.12,3.7,7.84a15,15,0,0,1-5,16.1l-1.26,1a10.61,10.61,0,0,1,6.21,9.65Z"/><path class="cls-2" d="M45.43,32.42a14.92,14.92,0,0,1-2.49-8.25V17.91A14.46,14.46,0,0,0,35,5h0l-.07,0-.26-.12-.12-.06-.24-.11-.12,0L34,4.52l-.13,0-.27-.11-.09,0L33.1,4.2l-.05,0-.32-.1-.12,0L32.35,4l-.14,0L32,3.86l-.14,0-.26-.06-.12,0-.33-.06h-.06l-.4-.07h-.1l-.3,0-.14,0-.26,0-.15,0-.26,0H21.53A14.47,14.47,0,0,0,7.06,17.91v6.26a14.85,14.85,0,0,1-2.5,8.25l0,.06c-.07.11-.14.21-.2.32l-.09.13-.17.28L4,33.32l-.22.4,0,0-.2.39,0,.06a15.22,15.22,0,0,0-1.41,4.68v0c0,.15,0,.31,0,.46v0l0,.46a.28.28,0,0,0,0,.09c0,.11,0,.22,0,.34v.15c0,.1,0,.21,0,.31v.49a2.18,2.18,0,0,1,0,.25.76.76,0,0,0,0,.15c0,.31,0,.61.07.92v.05a15.22,15.22,0,0,0,.45,2.33l0,.09c.08.28.17.55.26.82a1.43,1.43,0,0,0,.08.22l.06.18.15.39h0c.06.15.12.29.19.43l0,0a15.34,15.34,0,0,0,4.45,5.76l1.28,1a10.72,10.72,0,0,1,4.46-1,6,6,0,0,0,6-6V46l0,0a14.33,14.33,0,0,1-8.84-13.24v-.21c0-.73,0-2.2,0-5.35V25.85a1.13,1.13,0,0,1,.09-.45s0,0,0,0h0a1.54,1.54,0,0,1,.21-.29,1.13,1.13,0,0,1,.93-.36,30,30,0,0,0,19.52-5,1.16,1.16,0,0,1,1.76.64,5.42,5.42,0,0,0,5,4.25,1.15,1.15,0,0,1,1.09,1.15v6.93a14.32,14.32,0,0,1-8.85,13.24l0,0v1a6,6,0,0,0,6,6,10.72,10.72,0,0,1,4.46,1l1.28-1A15.31,15.31,0,0,0,45.43,32.42Z"/><path class="cls-2" d="M38.23,24.6h0a5.4,5.4,0,0,1-5-4.25,1.15,1.15,0,0,0-1.76-.64,29.87,29.87,0,0,1-18.12,5.08h-.24l-.41,0-.18,0-.55,0h-.06a1.15,1.15,0,0,0-1.21,1.15v6.83c0,.18,0,.37,0,.55s0,.13,0,.2,0,.22,0,.33a2.11,2.11,0,0,0,0,.26c0,.07,0,.14,0,.21a14.06,14.06,0,0,0,5.13,9.49l.18.15.1.07A14.31,14.31,0,0,0,39.32,32.68V25.75A1.15,1.15,0,0,0,38.23,24.6Z"/><path class="cls-3" d="M47.28,63.72V69.4a1.16,1.16,0,0,1-1.16,1.16H3.88A1.16,1.16,0,0,1,2.72,69.4V63.72A10.79,10.79,0,0,1,13.51,52.94,6,6,0,0,0,16,52.4l0,.08,8.26,6.39a1.14,1.14,0,0,0,1.42,0L34,52.48l0-.08a6.08,6.08,0,0,0,2.49.54A10.79,10.79,0,0,1,47.28,63.72Z"/></g></svg>