<svg id="Layer_1" data-name="Layer 1" xmlns="http://www.w3.org/2000/svg" width="50" height="74" viewBox="0 0 50 74"><defs><style>.cls-1,.cls-2{fill:#fff;stroke-miterlimit:10;stroke-width:2px;}.cls-1{stroke:#333;}.cls-2{stroke:#158a73;}</style></defs><path class="cls-1" d="M47.59,64v5.79A1.17,1.17,0,0,1,46.42,71H3.62a1.17,1.17,0,0,1-1.17-1.17V64a11,11,0,0,1,11-10.9,6.08,6.08,0,0,0,4.92-2.58h0a6.83,6.83,0,0,0,1.09-4.47l0-.06a14.51,14.51,0,0,1-9-13.4v-.47a3.62,3.62,0,0,1-3.66-3.6c0-1.37,0-12.66,0-14.29a4,4,0,0,1,4-3.95A11.66,11.66,0,0,1,21.65,3L37.42,3a1.17,1.17,0,0,1,1.09,1.59l-1,2.64a1.17,1.17,0,0,0,.77,1.54l.81.24a5.9,5.9,0,0,1,4.27,5.65c0,1.1,0,8.83,0,13.67a3.82,3.82,0,0,1-3.82,3.82v.47a14.49,14.49,0,0,1-9,13.41h0l0,0a6.85,6.85,0,0,0,1.09,4.47,6.15,6.15,0,0,0,4.94,2.59,11,11,0,0,1,11,10.9Z"/><path class="cls-2" d="M47.59,64v5.79A1.17,1.17,0,0,1,46.42,71H3.62a1.17,1.17,0,0,1-1.17-1.17V64a11,11,0,0,1,11-10.9,6.05,6.05,0,0,0,4.92-2.59L24.15,57a1.18,1.18,0,0,0,1.74,0l5.78-6.43a6.12,6.12,0,0,0,4.93,2.58,11,11,0,0,1,11,10.9Z"/><path class="cls-2" d="M34.27,52.65s-1.47,6.62-1.46,6.58a1.08,1.08,0,0,1-1.87.48c-3.85-4.44-3.32-3.86-3.71-4.21l4.44-4.94A6.13,6.13,0,0,0,34.27,52.65Z"/><path class="cls-2" d="M18.36,50.55l4.35,4.83L19.1,59.66a1.08,1.08,0,0,1-1.88-.47s-1.43-6.5-1.45-6.54a6.12,6.12,0,0,0,2.59-2.1Z"/><path class="cls-1" d="M32.51,16.07H17.56a7,7,0,0,0-5.77,3l0,0-.08.15a4.88,4.88,0,0,0-.34.58c-.07.12-.12.24-.18.36s-.14.33-.2.51-.12.35-.17.54-.09.36-.13.54-.05.29-.07.44,0,.36,0,.54,0,.21,0,.32v9.52c0,.14,0,.28,0,.42s0,.4,0,.6,0,.29,0,.43,0,.43.07.64l.06.35c0,.25.09.49.14.73l.06.25c.07.31.16.61.25.91v0a14.43,14.43,0,0,0,1.28,2.89l.06.09q.23.39.48.75c0,.06.07.11.1.16.16.23.32.44.49.66l.13.17c.2.25.41.49.62.72l.36.36.29.29c.15.15.31.29.47.43l.2.18.55.44.13.09a14.7,14.7,0,0,0,2.07,1.3l0,0,.58.28.33.14.27.12.09,0A14.35,14.35,0,0,0,30.55,46h0a14.49,14.49,0,0,0,9-13.41s0-6.19,0-9.51A7,7,0,0,0,32.51,16.07Z"/></svg>