<?xml version="1.0" encoding="UTF-8"?>
<svg id="SS_Main" xmlns="http://www.w3.org/2000/svg" width="674" height="128" viewBox="0 0 674 128">
  <defs>
    <style>
      .cls-1 {
        fill: #fff;
      }
    </style>
  </defs>
  <g>
    <path class="cls-1" d="m52.2,1.9C25.26.71,2.29,21.7,1.1,48.64c-1.19,26.94,19.81,49.91,46.74,51.1s49.91-19.81,51.1-46.74C100.13,25.86,79.33,3.08,52.2,1.9Zm31.74,50.1c-.31,6.42-2.33,12.32-5.6,17.27l1.38,3.77,4.15,11.34-11.34-4.15-3.77-1.38c-4.65,3.07-10.1,4.99-15.95,5.42-.07,0-.14.01-.21.02-.33.02-.65.04-.98.05-.27.01-.53.02-.8.02-.2,0-.41,0-.61,0-.55,0-1.1,0-1.65-.04-18.68-.91-33.03-16.63-32.34-35.3.88-18.12,15.7-32.16,33.64-32.36.59,0,1.17,0,1.77.02,18.68.68,33.03,16.63,32.34,35.3Z"/>
    <path class="cls-1" d="m72.01,100.73c11.29-4.75,20.4-13.27,26.14-24.16.99.59,1.39,1.78.99,2.77-.59,2.18-.99,4.36-1.58,6.54-.4.99,0,1.98.59,2.57,6.54,7.13,13.07,14.06,19.41,21.19,3.76,3.96,3.57,10.1-.2,13.86-1.58,1.39-3.37,2.38-5.55,2.57-3.37.4-6.73-.79-8.91-3.37-6.34-7.13-12.87-14.06-19.21-21.19-.59-.79-1.39-.99-2.38-.79-2.18.4-4.36.79-6.73.99-1.19.59-1.58.4-2.57-.99Z"/>
    <g>
      <path class="cls-1" d="m65.12,43.25h-30c-1.1,0-2-.9-2-2s.9-2,2-2h30c1.1,0,2,.9,2,2s-.9,2-2,2Z"/>
      <path class="cls-1" d="m65.12,52.53h-30c-1.1,0-2-.9-2-2s.9-2,2-2h30c1.1,0,2,.9,2,2s-.9,2-2,2Z"/>
      <path class="cls-1" d="m65.12,61.8h-30c-1.1,0-2-.9-2-2s.9-2,2-2h30c1.1,0,2,.9,2,2s-.9,2-2,2Z"/>
    </g>
  </g>
  <g>
    <path class="cls-1" d="m165.68,40.44c-.4.64-.82,1.12-1.26,1.44s-1.01.48-1.7.48c-.61,0-1.27-.19-1.98-.58-.71-.39-1.51-.82-2.4-1.3-.89-.48-1.91-.91-3.06-1.3-1.15-.39-2.45-.58-3.92-.58-2.53,0-4.42.54-5.66,1.62-1.24,1.08-1.86,2.54-1.86,4.38,0,1.17.37,2.15,1.12,2.92.75.77,1.73,1.44,2.94,2,1.21.56,2.6,1.07,4.16,1.54,1.56.47,3.15.99,4.78,1.56,1.63.57,3.22,1.25,4.78,2.02,1.56.77,2.95,1.76,4.16,2.96,1.21,1.2,2.19,2.66,2.94,4.38.75,1.72,1.12,3.79,1.12,6.22,0,2.69-.47,5.21-1.4,7.56-.93,2.35-2.29,4.39-4.06,6.14-1.77,1.75-3.96,3.12-6.56,4.12s-5.55,1.5-8.86,1.5c-1.81,0-3.66-.19-5.54-.56s-3.7-.9-5.46-1.58c-1.76-.68-3.41-1.49-4.96-2.42-1.55-.93-2.89-1.97-4.04-3.12l4-6.32c.32-.45.74-.83,1.26-1.14.52-.31,1.09-.46,1.7-.46.8,0,1.61.25,2.42.76.81.51,1.73,1.07,2.76,1.68,1.03.61,2.21,1.17,3.54,1.68,1.33.51,2.91.76,4.72.76,2.45,0,4.36-.54,5.72-1.62,1.36-1.08,2.04-2.79,2.04-5.14,0-1.36-.37-2.47-1.12-3.32-.75-.85-1.73-1.56-2.94-2.12-1.21-.56-2.59-1.05-4.14-1.48-1.55-.43-3.13-.9-4.76-1.42s-3.21-1.16-4.76-1.92c-1.55-.76-2.93-1.76-4.14-3-1.21-1.24-2.19-2.79-2.94-4.64-.75-1.85-1.12-4.14-1.12-6.86,0-2.19.44-4.32,1.32-6.4.88-2.08,2.17-3.93,3.88-5.56,1.71-1.63,3.8-2.93,6.28-3.9,2.48-.97,5.32-1.46,8.52-1.46,1.79,0,3.53.14,5.22.42,1.69.28,3.3.69,4.82,1.24,1.52.55,2.94,1.2,4.26,1.96,1.32.76,2.5,1.62,3.54,2.58l-3.36,6.28Z"/>
    <path class="cls-1" d="m215.31,45.4v41.48h-7.68c-1.55,0-2.56-.69-3.04-2.08l-.72-2.4c-.8.77-1.63,1.47-2.48,2.1-.85.63-1.77,1.16-2.74,1.6-.97.44-2.03.79-3.16,1.04-1.13.25-2.37.38-3.7.38-2.27,0-4.27-.39-6.02-1.18s-3.22-1.89-4.42-3.3c-1.2-1.41-2.11-3.08-2.72-5-.61-1.92-.92-4.03-.92-6.32v-26.32h12.4v26.32c0,2.05.47,3.64,1.4,4.76.93,1.12,2.31,1.68,4.12,1.68,1.36,0,2.63-.29,3.82-.86,1.19-.57,2.34-1.35,3.46-2.34v-29.56h12.4Z"/>
    <path class="cls-1" d="m237.71,51.8c1.28-2.24,2.75-4,4.42-5.28,1.67-1.28,3.58-1.92,5.74-1.92,1.87,0,3.39.44,4.56,1.32l-.8,9.12c-.13.59-.35.99-.66,1.2-.31.21-.73.32-1.26.32-.21,0-.49-.01-.84-.04-.35-.03-.71-.06-1.08-.1s-.75-.08-1.14-.12-.74-.06-1.06-.06c-1.81,0-3.26.48-4.34,1.44s-1.99,2.29-2.74,4v25.2h-12.4v-41.48h7.36c.61,0,1.13.05,1.54.16.41.11.76.27,1.04.5.28.23.49.53.64.9.15.37.27.83.38,1.36l.64,3.48Z"/>
    <path class="cls-1" d="m298.11,45.4l-16.08,41.48h-11.28l-16.08-41.48h10.32c.88,0,1.62.21,2.22.62.6.41,1.01.93,1.22,1.54l5.76,18.6c.51,1.52.95,3,1.34,4.44.39,1.44.73,2.88,1.02,4.32.59-2.88,1.4-5.8,2.44-8.76l6-18.6c.21-.61.61-1.13,1.2-1.54.59-.41,1.28-.62,2.08-.62h9.84Z"/>
    <path class="cls-1" d="m313.35,68.36c.4,3.47,1.45,5.98,3.16,7.54,1.71,1.56,3.91,2.34,6.6,2.34,1.44,0,2.68-.17,3.72-.52,1.04-.35,1.97-.73,2.78-1.16.81-.43,1.56-.81,2.24-1.16.68-.35,1.39-.52,2.14-.52.99,0,1.73.36,2.24,1.08l3.6,4.44c-1.28,1.47-2.66,2.66-4.14,3.58s-3,1.64-4.56,2.16c-1.56.52-3.12.88-4.68,1.08-1.56.2-3.05.3-4.46.3-2.91,0-5.63-.47-8.18-1.42-2.55-.95-4.77-2.35-6.68-4.22-1.91-1.87-3.41-4.19-4.52-6.96-1.11-2.77-1.66-6-1.66-9.68,0-2.77.47-5.4,1.42-7.88.95-2.48,2.31-4.65,4.08-6.52,1.77-1.87,3.92-3.35,6.44-4.44,2.52-1.09,5.37-1.64,8.54-1.64,2.75,0,5.26.43,7.54,1.28,2.28.85,4.24,2.09,5.88,3.72,1.64,1.63,2.92,3.62,3.84,5.98.92,2.36,1.38,5.03,1.38,8.02,0,.93-.04,1.69-.12,2.28-.08.59-.23,1.05-.44,1.4-.21.35-.5.59-.86.72-.36.13-.82.2-1.38.2h-23.92Zm15.6-7.2c0-.99-.13-1.95-.38-2.88-.25-.93-.67-1.77-1.24-2.5-.57-.73-1.33-1.33-2.26-1.78-.93-.45-2.07-.68-3.4-.68-2.35,0-4.19.67-5.52,2.02-1.33,1.35-2.21,3.29-2.64,5.82h15.44Z"/>
    <path class="cls-1" d="m386.75,45.4l-22.16,52.24c-.37.83-.83,1.43-1.36,1.82-.53.39-1.39.58-2.56.58h-9.28l8-16.8-16.56-37.84h10.96c.96,0,1.7.21,2.22.64.52.43.9.93,1.14,1.52l6.8,17.88c.64,1.63,1.16,3.29,1.56,5,.29-.85.59-1.71.88-2.56.29-.85.6-1.69.92-2.52l6.16-17.8c.24-.61.67-1.13,1.28-1.54.61-.41,1.28-.62,2-.62h10Z"/>
    <path class="cls-1" d="m426.43,40.44c-.4.64-.82,1.12-1.26,1.44-.44.32-1.01.48-1.7.48-.61,0-1.27-.19-1.98-.58-.71-.39-1.51-.82-2.4-1.3s-1.91-.91-3.06-1.3c-1.15-.39-2.45-.58-3.92-.58-2.53,0-4.42.54-5.66,1.62-1.24,1.08-1.86,2.54-1.86,4.38,0,1.17.37,2.15,1.12,2.92.75.77,1.73,1.44,2.94,2,1.21.56,2.6,1.07,4.16,1.54,1.56.47,3.15.99,4.78,1.56,1.63.57,3.22,1.25,4.78,2.02,1.56.77,2.95,1.76,4.16,2.96,1.21,1.2,2.19,2.66,2.94,4.38.75,1.72,1.12,3.79,1.12,6.22,0,2.69-.47,5.21-1.4,7.56-.93,2.35-2.29,4.39-4.06,6.14-1.77,1.75-3.96,3.12-6.56,4.12-2.6,1-5.55,1.5-8.86,1.5-1.81,0-3.66-.19-5.54-.56s-3.7-.9-5.46-1.58-3.41-1.49-4.96-2.42c-1.55-.93-2.89-1.97-4.04-3.12l4-6.32c.32-.45.74-.83,1.26-1.14.52-.31,1.09-.46,1.7-.46.8,0,1.61.25,2.42.76.81.51,1.73,1.07,2.76,1.68,1.03.61,2.21,1.17,3.54,1.68,1.33.51,2.91.76,4.72.76,2.45,0,4.36-.54,5.72-1.62,1.36-1.08,2.04-2.79,2.04-5.14,0-1.36-.37-2.47-1.12-3.32-.75-.85-1.73-1.56-2.94-2.12-1.21-.56-2.59-1.05-4.14-1.48-1.55-.43-3.13-.9-4.76-1.42-1.63-.52-3.21-1.16-4.76-1.92-1.55-.76-2.93-1.76-4.14-3-1.21-1.24-2.19-2.79-2.94-4.64-.75-1.85-1.12-4.14-1.12-6.86,0-2.19.44-4.32,1.32-6.4s2.17-3.93,3.88-5.56c1.71-1.63,3.8-2.93,6.28-3.9,2.48-.97,5.32-1.46,8.52-1.46,1.79,0,3.53.14,5.22.42s3.3.69,4.82,1.24c1.52.55,2.94,1.2,4.26,1.96,1.32.76,2.5,1.62,3.54,2.58l-3.36,6.28Z"/>
    <path class="cls-1" d="m450.47,50.52c1.63-1.73,3.47-3.15,5.54-4.26,2.07-1.11,4.53-1.66,7.38-1.66,2.16,0,4.16.48,6,1.44s3.43,2.35,4.76,4.16c1.33,1.81,2.38,4.03,3.14,6.66.76,2.63,1.14,5.61,1.14,8.94,0,3.12-.43,6-1.3,8.64-.87,2.64-2.08,4.93-3.64,6.88-1.56,1.95-3.43,3.47-5.6,4.56s-4.58,1.64-7.22,1.64c-2.16,0-3.97-.31-5.44-.92-1.47-.61-2.8-1.44-4-2.48v15.92h-12.4v-54.64h7.68c1.55,0,2.56.69,3.04,2.08l.92,3.04Zm.76,25.08c.93,1.01,1.95,1.73,3.04,2.16,1.09.43,2.24.64,3.44.64s2.2-.23,3.16-.68c.96-.45,1.79-1.18,2.5-2.18.71-1,1.26-2.3,1.66-3.9.4-1.6.6-3.55.6-5.84s-.16-4.03-.48-5.52c-.32-1.49-.77-2.7-1.34-3.62-.57-.92-1.26-1.58-2.06-1.98-.8-.4-1.69-.6-2.68-.6-1.81,0-3.31.33-4.48,1-1.17.67-2.29,1.64-3.36,2.92v17.6Z"/>
    <path class="cls-1" d="m506.35,44.76c3.15,0,6.01.49,8.6,1.48,2.59.99,4.81,2.4,6.66,4.24,1.85,1.84,3.29,4.07,4.32,6.7,1.03,2.63,1.54,5.58,1.54,8.86s-.51,6.29-1.54,8.94c-1.03,2.65-2.47,4.91-4.32,6.76-1.85,1.85-4.07,3.28-6.66,4.28-2.59,1-5.45,1.5-8.6,1.5s-6.06-.5-8.66-1.5c-2.6-1-4.84-2.43-6.72-4.28-1.88-1.85-3.33-4.11-4.36-6.76-1.03-2.65-1.54-5.63-1.54-8.94s.51-6.23,1.54-8.86c1.03-2.63,2.48-4.86,4.36-6.7,1.88-1.84,4.12-3.25,6.72-4.24,2.6-.99,5.49-1.48,8.66-1.48Zm0,33.56c2.85,0,4.95-1.01,6.3-3.02,1.35-2.01,2.02-5.07,2.02-9.18s-.67-7.16-2.02-9.16c-1.35-2-3.45-3-6.3-3s-5.08,1-6.44,3-2.04,5.05-2.04,9.16.68,7.17,2.04,9.18c1.36,2.01,3.51,3.02,6.44,3.02Z"/>
    <path class="cls-1" d="m550.11,87.52c-1.97,0-3.71-.29-5.22-.86-1.51-.57-2.77-1.39-3.8-2.44-1.03-1.05-1.81-2.33-2.34-3.82-.53-1.49-.8-3.16-.8-5v-21.44h-3.52c-.64,0-1.19-.21-1.64-.62-.45-.41-.68-1.02-.68-1.82v-4.84l6.6-1.28,2.44-10.12c.32-1.28,1.23-1.92,2.72-1.92h6.48v12.12h10.28v8.48h-10.28v20.6c0,.96.23,1.75.7,2.38.47.63,1.14.94,2.02.94.45,0,.83-.05,1.14-.14.31-.09.57-.2.8-.32.23-.12.44-.23.64-.32.2-.09.43-.14.7-.14.37,0,.67.09.9.26.23.17.46.45.7.82l3.76,5.88c-1.6,1.2-3.4,2.1-5.4,2.7-2,.6-4.07.9-6.2.9Z"/>
    <path class="cls-1" d="m583.23,87.52c-1.97,0-3.71-.29-5.22-.86-1.51-.57-2.77-1.39-3.8-2.44-1.03-1.05-1.81-2.33-2.34-3.82-.53-1.49-.8-3.16-.8-5v-21.44h-3.52c-.64,0-1.19-.21-1.64-.62-.45-.41-.68-1.02-.68-1.82v-4.84l6.6-1.28,2.44-10.12c.32-1.28,1.23-1.92,2.72-1.92h6.48v12.12h10.28v8.48h-10.28v20.6c0,.96.23,1.75.7,2.38.47.63,1.14.94,2.02.94.45,0,.83-.05,1.14-.14.31-.09.57-.2.8-.32.23-.12.44-.23.64-.32.2-.09.43-.14.7-.14.37,0,.67.09.9.26.23.17.46.45.7.82l3.76,5.88c-1.6,1.2-3.4,2.1-5.4,2.7-2,.6-4.07.9-6.2.9Z"/>
    <path class="cls-1" d="m611.31,68.36c.4,3.47,1.45,5.98,3.16,7.54,1.71,1.56,3.91,2.34,6.6,2.34,1.44,0,2.68-.17,3.72-.52,1.04-.35,1.97-.73,2.78-1.16.81-.43,1.56-.81,2.24-1.16.68-.35,1.39-.52,2.14-.52.99,0,1.73.36,2.24,1.08l3.6,4.44c-1.28,1.47-2.66,2.66-4.14,3.58-1.48.92-3,1.64-4.56,2.16-1.56.52-3.12.88-4.68,1.08-1.56.2-3.05.3-4.46.3-2.91,0-5.63-.47-8.18-1.42-2.55-.95-4.77-2.35-6.68-4.22-1.91-1.87-3.41-4.19-4.52-6.96-1.11-2.77-1.66-6-1.66-9.68,0-2.77.47-5.4,1.42-7.88.95-2.48,2.31-4.65,4.08-6.52,1.77-1.87,3.92-3.35,6.44-4.44,2.52-1.09,5.37-1.64,8.54-1.64,2.75,0,5.26.43,7.54,1.28,2.28.85,4.24,2.09,5.88,3.72,1.64,1.63,2.92,3.62,3.84,5.98.92,2.36,1.38,5.03,1.38,8.02,0,.93-.04,1.69-.12,2.28-.08.59-.23,1.05-.44,1.4-.21.35-.5.59-.86.72-.36.13-.82.2-1.38.2h-23.92Zm15.6-7.2c0-.99-.13-1.95-.38-2.88-.25-.93-.67-1.77-1.24-2.5-.57-.73-1.33-1.33-2.26-1.78-.93-.45-2.07-.68-3.4-.68-2.35,0-4.19.67-5.52,2.02-1.33,1.35-2.21,3.29-2.64,5.82h15.44Z"/>
    <path class="cls-1" d="m658.23,51.8c1.28-2.24,2.75-4,4.42-5.28,1.67-1.28,3.58-1.92,5.74-1.92,1.87,0,3.39.44,4.56,1.32l-.8,9.12c-.13.59-.35.99-.66,1.2-.31.21-.73.32-1.26.32-.21,0-.49-.01-.84-.04-.35-.03-.71-.06-1.08-.1-.37-.04-.75-.08-1.14-.12-.39-.04-.74-.06-1.06-.06-1.81,0-3.26.48-4.34,1.44s-1.99,2.29-2.74,4v25.2h-12.4v-41.48h7.36c.61,0,1.13.05,1.54.16.41.11.76.27,1.04.5.28.23.49.53.64.9.15.37.27.83.38,1.36l.64,3.48Z"/>
  </g>
</svg>