<svg id="SS_Main" xmlns="http://www.w3.org/2000/svg" width="674" height="128" viewBox="0 0 674 128"><defs><style>.cls-1{fill:#45b29b;}</style></defs><path class="cls-1" d="M52.2,1.9A49,49,0,1,0,98.94,53,49.07,49.07,0,0,0,52.2,1.9ZM83.94,52a34.3,34.3,0,0,1-5.59,17.27L79.72,73l4.15,11.34L72.52,80.24l-3.76-1.38a33.39,33.39,0,0,1-16,5.42l-.21,0-1,0-.8,0H50.2c-.55,0-1.1,0-1.66,0a33.85,33.85,0,0,1,1.3-67.66c.58,0,1.17,0,1.76,0C70.28,17.38,84.63,33.32,83.94,52Z"/><path class="cls-1" d="M72,100.73A52.68,52.68,0,0,0,98.15,76.56a2.28,2.28,0,0,1,1,2.78c-.6,2.17-1,4.35-1.59,6.53a2.42,2.42,0,0,0,.6,2.58c6.53,7.13,13.07,14.06,19.41,21.19a9.92,9.92,0,0,1-.2,13.86,9.62,9.62,0,0,1-5.55,2.58,10.07,10.07,0,0,1-8.91-3.37c-6.34-7.13-12.87-14.06-19.21-21.19a2.17,2.17,0,0,0-2.38-.79c-2.17.39-4.35.79-6.73,1C73.39,102.31,73,102.11,72,100.73Z"/><path class="cls-1" d="M65.12,43.25h-30a2,2,0,0,1,0-4h30a2,2,0,0,1,0,4Z"/><path class="cls-1" d="M65.12,52.53h-30a2,2,0,0,1,0-4h30a2,2,0,0,1,0,4Z"/><path class="cls-1" d="M65.12,61.8h-30a2,2,0,1,1,0-4h30a2,2,0,0,1,0,4Z"/><path d="M165.68,40.44a5.08,5.08,0,0,1-1.26,1.44,2.83,2.83,0,0,1-1.7.48,4.08,4.08,0,0,1-2-.58l-2.4-1.3a20.85,20.85,0,0,0-3.06-1.3,12.19,12.19,0,0,0-3.92-.58c-2.54,0-4.42.54-5.66,1.62a5.51,5.51,0,0,0-1.86,4.38A4,4,0,0,0,145,47.52a9.55,9.55,0,0,0,2.94,2,31.81,31.81,0,0,0,4.16,1.54q2.34.7,4.78,1.56a43.28,43.28,0,0,1,4.78,2,16,16,0,0,1,4.16,3A13.93,13.93,0,0,1,168.72,62a15.68,15.68,0,0,1,1.12,6.22,20.36,20.36,0,0,1-1.4,7.56,17.84,17.84,0,0,1-4.06,6.14A18.86,18.86,0,0,1,157.82,86a24.57,24.57,0,0,1-8.86,1.5,28.61,28.61,0,0,1-5.54-.56A32.58,32.58,0,0,1,138,85.38,31.67,31.67,0,0,1,133,83a20.51,20.51,0,0,1-4-3.12l4-6.32a4.09,4.09,0,0,1,1.26-1.14,3.24,3.24,0,0,1,1.7-.46,4.54,4.54,0,0,1,2.42.76q1.22.76,2.76,1.68A22.49,22.49,0,0,0,144.64,76a13.16,13.16,0,0,0,4.72.76,9,9,0,0,0,5.72-1.62q2-1.62,2-5.14A4.89,4.89,0,0,0,156,66.72a8.76,8.76,0,0,0-2.94-2.12,28,28,0,0,0-4.14-1.48q-2.32-.65-4.76-1.42a34.32,34.32,0,0,1-4.76-1.92,14.92,14.92,0,0,1-4.14-3,13.86,13.86,0,0,1-2.94-4.64,18.34,18.34,0,0,1-1.12-6.86,16.27,16.27,0,0,1,1.32-6.4,16.51,16.51,0,0,1,3.88-5.56,18.9,18.9,0,0,1,6.28-3.9A23.26,23.26,0,0,1,151.2,28a32.07,32.07,0,0,1,5.22.42,27.23,27.23,0,0,1,4.82,1.24,26.76,26.76,0,0,1,4.26,2A19.64,19.64,0,0,1,169,34.16Z"/><path d="M215.31,45.4V86.88h-7.67a2.91,2.91,0,0,1-3-2.08l-.72-2.4a25.32,25.32,0,0,1-2.48,2.1,15.33,15.33,0,0,1-2.74,1.6,16.26,16.26,0,0,1-3.16,1,17.23,17.23,0,0,1-3.7.38,14.52,14.52,0,0,1-6-1.18,12.49,12.49,0,0,1-4.41-3.3,14.31,14.31,0,0,1-2.72-5,20.49,20.49,0,0,1-.93-6.32V45.4h12.41V71.72a7.21,7.21,0,0,0,1.4,4.76,5,5,0,0,0,4.12,1.68,8.72,8.72,0,0,0,3.82-.86A15.3,15.3,0,0,0,202.92,75V45.4Z"/><path d="M237.71,51.8a17.54,17.54,0,0,1,4.42-5.28,9.17,9.17,0,0,1,5.74-1.92,7.39,7.39,0,0,1,4.56,1.32l-.8,9.12a1.87,1.87,0,0,1-.66,1.2,2.17,2.17,0,0,1-1.26.32c-.21,0-.49,0-.84,0l-1.08-.1-1.14-.12a10.27,10.27,0,0,0-1.06-.06,6.3,6.3,0,0,0-4.34,1.44,11.34,11.34,0,0,0-2.74,4v25.2h-12.4V45.4h7.36a6.06,6.06,0,0,1,1.54.16,2.66,2.66,0,0,1,1,.5,2.12,2.12,0,0,1,.64.9,7.26,7.26,0,0,1,.38,1.36Z"/><path d="M298.11,45.4,282,86.88H270.75L254.67,45.4H265a3.84,3.84,0,0,1,2.22.62,3.07,3.07,0,0,1,1.22,1.54l5.76,18.6c.51,1.52,1,3,1.34,4.44s.73,2.88,1,4.32A67,67,0,0,1,279,66.16l6-18.6a3.2,3.2,0,0,1,1.2-1.54,3.55,3.55,0,0,1,2.08-.62Z"/><path d="M313.35,68.36c.4,3.47,1.46,6,3.16,7.54a9.41,9.41,0,0,0,6.6,2.34,11.72,11.72,0,0,0,3.72-.52,18.62,18.62,0,0,0,2.78-1.16c.81-.43,1.56-.81,2.24-1.16a4.63,4.63,0,0,1,2.14-.52A2.55,2.55,0,0,1,336.23,76l3.6,4.44A18.35,18.35,0,0,1,335.69,84a21.51,21.51,0,0,1-4.56,2.16,24.72,24.72,0,0,1-4.68,1.08,35,35,0,0,1-4.46.3,23.25,23.25,0,0,1-8.18-1.42,18.88,18.88,0,0,1-6.68-4.22,20.12,20.12,0,0,1-4.52-7A26.13,26.13,0,0,1,301,65.24a22.06,22.06,0,0,1,1.42-7.88,19.14,19.14,0,0,1,10.52-11A23,23,0,0,1,329,46a16.3,16.3,0,0,1,5.88,3.72,17,17,0,0,1,3.84,6,21.93,21.93,0,0,1,1.38,8A17.58,17.58,0,0,1,340,66a3.5,3.5,0,0,1-.44,1.4,1.63,1.63,0,0,1-.86.72,4.11,4.11,0,0,1-1.38.2Zm15.6-7.2a10.64,10.64,0,0,0-.38-2.88,6.82,6.82,0,0,0-1.24-2.5A6.31,6.31,0,0,0,325.07,54a7.78,7.78,0,0,0-3.4-.68,7.43,7.43,0,0,0-5.52,2,10.59,10.59,0,0,0-2.64,5.82Z"/><path d="M386.75,45.4,364.59,97.64a3.54,3.54,0,0,1-3.92,2.4h-9.28l8-16.8L342.83,45.4h11A3.4,3.4,0,0,1,356,46a3.82,3.82,0,0,1,1.14,1.52L364,65.44a36.2,36.2,0,0,1,1.56,5c.3-.85.59-1.71.88-2.56s.6-1.69.92-2.52l6.16-17.8A3.32,3.32,0,0,1,374.75,46a3.55,3.55,0,0,1,2-.62Z"/><path d="M426.43,40.44a5.08,5.08,0,0,1-1.26,1.44,2.81,2.81,0,0,1-1.7.48,4.14,4.14,0,0,1-2-.58c-.7-.39-1.5-.82-2.4-1.3a20,20,0,0,0-3.06-1.3,12.15,12.15,0,0,0-3.92-.58q-3.8,0-5.66,1.62a5.51,5.51,0,0,0-1.86,4.38,4,4,0,0,0,1.12,2.92,9.8,9.8,0,0,0,2.94,2,32.36,32.36,0,0,0,4.16,1.54q2.34.7,4.78,1.56a42.49,42.49,0,0,1,4.78,2,15.81,15.81,0,0,1,4.16,3A13.76,13.76,0,0,1,429.47,62a15.5,15.5,0,0,1,1.12,6.22,20.16,20.16,0,0,1-1.4,7.56,17.56,17.56,0,0,1-4.06,6.14A18.77,18.77,0,0,1,418.57,86a24.53,24.53,0,0,1-8.86,1.5,28.68,28.68,0,0,1-5.54-.56,32.58,32.58,0,0,1-5.46-1.58,32.11,32.11,0,0,1-5-2.42,21.12,21.12,0,0,1-4-3.12l4-6.32A4.09,4.09,0,0,1,395,72.38a3.26,3.26,0,0,1,1.7-.46,4.52,4.52,0,0,1,2.42.76q1.23.76,2.76,1.68A23.37,23.37,0,0,0,405.39,76a13.2,13.2,0,0,0,4.72.76,9,9,0,0,0,5.72-1.62q2-1.62,2-5.14a4.84,4.84,0,0,0-1.12-3.32,8.66,8.66,0,0,0-2.94-2.12,27.19,27.19,0,0,0-4.14-1.48q-2.31-.65-4.76-1.42a35.35,35.35,0,0,1-4.76-1.92,14.92,14.92,0,0,1-4.14-3,14.18,14.18,0,0,1-2.94-4.64A18.55,18.55,0,0,1,392,45.28a16.27,16.27,0,0,1,1.32-6.4,16.65,16.65,0,0,1,3.88-5.56,19,19,0,0,1,6.28-3.9A23.26,23.26,0,0,1,412,28a31.89,31.89,0,0,1,5.22.42,27,27,0,0,1,9.08,3.2,19.64,19.64,0,0,1,3.54,2.58Z"/><path d="M450.47,50.52A21.57,21.57,0,0,1,456,46.26a15.4,15.4,0,0,1,7.38-1.66,12.78,12.78,0,0,1,6,1.44,13.83,13.83,0,0,1,4.76,4.16,21,21,0,0,1,3.14,6.66,32.22,32.22,0,0,1,1.14,8.94,27.46,27.46,0,0,1-1.3,8.64,21.81,21.81,0,0,1-3.64,6.88,16.72,16.72,0,0,1-5.6,4.56,15.87,15.87,0,0,1-7.22,1.64,14.21,14.21,0,0,1-5.44-.92,14.64,14.64,0,0,1-4-2.48V100h-12.4V45.4h7.68a2.91,2.91,0,0,1,3,2.08Zm.76,25.08a8.29,8.29,0,0,0,3,2.16,9.3,9.3,0,0,0,3.44.64,7.34,7.34,0,0,0,3.16-.68,6.44,6.44,0,0,0,2.5-2.18,11.54,11.54,0,0,0,1.66-3.9,24.45,24.45,0,0,0,.6-5.84,26.82,26.82,0,0,0-.48-5.52,11.48,11.48,0,0,0-1.34-3.62,5.18,5.18,0,0,0-2.06-2,5.9,5.9,0,0,0-2.68-.6,9,9,0,0,0-4.48,1A12.62,12.62,0,0,0,451.23,58Z"/><path d="M506.35,44.76a23.88,23.88,0,0,1,8.6,1.48,18.85,18.85,0,0,1,6.66,4.24,19.16,19.16,0,0,1,4.32,6.7A24.11,24.11,0,0,1,527.47,66,24.51,24.51,0,0,1,525.93,75a19.33,19.33,0,0,1-4.32,6.76A18.94,18.94,0,0,1,515,86a23.67,23.67,0,0,1-8.6,1.5,24,24,0,0,1-8.66-1.5A19.37,19.37,0,0,1,491,81.74,19,19,0,0,1,486.61,75,24.51,24.51,0,0,1,485.07,66a24.11,24.11,0,0,1,1.54-8.86,18.84,18.84,0,0,1,4.36-6.7,19.28,19.28,0,0,1,6.72-4.24A24.18,24.18,0,0,1,506.35,44.76Zm0,33.56a7.06,7.06,0,0,0,6.3-3q2-3,2-9.18t-2-9.16a7.07,7.07,0,0,0-6.3-3q-4.39,0-6.44,3t-2,9.16q0,6.16,2,9.18T506.35,78.32Z"/><path d="M550.11,87.52a14.72,14.72,0,0,1-5.22-.86,10.07,10.07,0,0,1-6.14-6.26,14.86,14.86,0,0,1-.8-5V54h-3.52a2.24,2.24,0,0,1-2.32-2.44V46.68l6.6-1.28,2.44-10.12a2.47,2.47,0,0,1,2.72-1.92h6.48V45.48h10.28V54H550.35v20.6a3.86,3.86,0,0,0,.7,2.38,2.36,2.36,0,0,0,2,.94,4.12,4.12,0,0,0,1.14-.14,4.3,4.3,0,0,0,.8-.32l.64-.32a1.68,1.68,0,0,1,.7-.14,1.48,1.48,0,0,1,.9.26,3.15,3.15,0,0,1,.7.82l3.76,5.88a17.11,17.11,0,0,1-5.4,2.7A21.48,21.48,0,0,1,550.11,87.52Z"/><path d="M583.23,87.52a14.65,14.65,0,0,1-5.22-.86,10.07,10.07,0,0,1-6.14-6.26,14.86,14.86,0,0,1-.8-5V54h-3.52a2.24,2.24,0,0,1-2.32-2.44V46.68l6.6-1.28,2.44-10.12A2.47,2.47,0,0,1,577,33.36h6.48V45.48h10.28V54H583.47v20.6a3.86,3.86,0,0,0,.7,2.38,2.35,2.35,0,0,0,2,.94,4.12,4.12,0,0,0,1.14-.14,4.6,4.6,0,0,0,.8-.32l.64-.32a1.68,1.68,0,0,1,.7-.14,1.48,1.48,0,0,1,.9.26,3.36,3.36,0,0,1,.7.82l3.76,5.88a17.11,17.11,0,0,1-5.4,2.7A21.48,21.48,0,0,1,583.23,87.52Z"/><path d="M611.31,68.36q.6,5.2,3.16,7.54a9.41,9.41,0,0,0,6.6,2.34,11.72,11.72,0,0,0,3.72-.52,18.62,18.62,0,0,0,2.78-1.16c.81-.43,1.56-.81,2.24-1.16a4.6,4.6,0,0,1,2.14-.52A2.56,2.56,0,0,1,634.19,76l3.6,4.44A18.35,18.35,0,0,1,633.65,84a21.51,21.51,0,0,1-4.56,2.16,24.72,24.72,0,0,1-4.68,1.08,35.16,35.16,0,0,1-4.46.3,23.21,23.21,0,0,1-8.18-1.42,18.8,18.8,0,0,1-6.68-4.22,20,20,0,0,1-4.52-7,25.93,25.93,0,0,1-1.66-9.68,21.85,21.85,0,0,1,1.42-7.88,19.55,19.55,0,0,1,4.08-6.52,19.29,19.29,0,0,1,6.44-4.44A23,23,0,0,1,626.93,46a16.3,16.3,0,0,1,5.88,3.72,17,17,0,0,1,3.84,6,21.93,21.93,0,0,1,1.38,8,17.58,17.58,0,0,1-.12,2.28,3.67,3.67,0,0,1-.44,1.4,1.63,1.63,0,0,1-.86.72,4.11,4.11,0,0,1-1.38.2Zm15.6-7.2a11,11,0,0,0-.38-2.88,7,7,0,0,0-1.24-2.5A6.31,6.31,0,0,0,623,54a7.78,7.78,0,0,0-3.4-.68,7.39,7.39,0,0,0-5.52,2,10.59,10.59,0,0,0-2.64,5.82Z"/><path d="M658.23,51.8a17.39,17.39,0,0,1,4.42-5.28,9.15,9.15,0,0,1,5.74-1.92A7.43,7.43,0,0,1,673,45.92l-.8,9.12a2,2,0,0,1-.66,1.2,2.22,2.22,0,0,1-1.26.32c-.22,0-.5,0-.84,0l-1.08-.1-1.14-.12a10.42,10.42,0,0,0-1.06-.06,6.28,6.28,0,0,0-4.34,1.44,11.21,11.21,0,0,0-2.74,4v25.2h-12.4V45.4H654a6.17,6.17,0,0,1,1.54.16,2.72,2.72,0,0,1,1,.5,2.21,2.21,0,0,1,.64.9,9.2,9.2,0,0,1,.38,1.36Z"/></svg>